<svg width="131" height="40" viewBox="0 0 131 40" fill="none" xmlns="http://www.w3.org/2000/svg">
<rect y="0.59375" width="130.881" height="38.4945" rx="6.15912" fill="#0C0D10"/>
<path d="M85.337 19.0764V21.2811H83.955V22.727H85.337V27.6399C85.337 29.3174 86.0959 29.9885 88.0051 29.9885C88.3406 29.9885 88.6601 29.9485 88.9397 29.9006V28.4707C88.7001 28.4946 88.5483 28.5106 88.2847 28.5106C87.4299 28.5106 87.0545 28.1112 87.0545 27.2005V22.727H88.9397V21.2811H87.0545V19.0764H85.337Z" fill="white"/>
<path d="M93.8034 30.1083C96.3437 30.1083 97.9014 28.4068 97.9014 25.5869C97.9014 22.783 96.3357 21.0734 93.8034 21.0734C91.2631 21.0734 89.6973 22.783 89.6973 25.5869C89.6973 28.4068 91.2551 30.1083 93.8034 30.1083ZM93.8034 28.5825C92.3095 28.5825 91.4708 27.4881 91.4708 25.5869C91.4708 23.7016 92.3095 22.5992 93.8034 22.5992C95.2892 22.5992 96.136 23.7016 96.136 25.5869C96.136 27.4801 95.2892 28.5825 93.8034 28.5825Z" fill="white"/>
<path d="M99.2342 29.9405H100.952V24.804C100.952 23.5818 101.87 22.759 103.172 22.759C103.476 22.759 103.987 22.8149 104.131 22.8628V21.1693C103.947 21.1214 103.62 21.0974 103.364 21.0974C102.23 21.0974 101.263 21.7205 101.016 22.5753H100.888V21.2412H99.2342V29.9405Z" fill="white"/>
<path d="M108.396 22.5353C109.666 22.5353 110.496 23.422 110.536 24.788H106.143C106.239 23.43 107.125 22.5353 108.396 22.5353ZM110.528 27.5919C110.209 28.271 109.498 28.6464 108.459 28.6464C107.085 28.6464 106.199 27.6798 106.143 26.154V26.0582H112.286V25.4591C112.286 22.727 110.824 21.0734 108.404 21.0734C105.951 21.0734 104.393 22.8389 104.393 25.6188C104.393 28.3988 105.919 30.1083 108.412 30.1083C110.401 30.1083 111.791 29.1497 112.182 27.5919H110.528Z" fill="white"/>
<path d="M74.0739 26.728C74.2063 28.8642 75.9865 30.2303 78.636 30.2303C81.4677 30.2303 83.2395 28.7979 83.2395 26.5127C83.2395 24.716 82.2294 23.7225 79.7786 23.1512L78.4621 22.8283C76.9055 22.464 76.2763 21.9755 76.2763 21.1226C76.2763 20.0463 77.2533 19.3425 78.7188 19.3425C80.1098 19.3425 81.0702 20.0297 81.2441 21.1309H83.0491C82.9414 19.119 81.1696 17.7031 78.7436 17.7031C76.1355 17.7031 74.3968 19.119 74.3968 21.2468C74.3968 23.0021 75.3821 24.0454 77.5431 24.5504L79.0831 24.923C80.6645 25.2956 81.36 25.8421 81.36 26.7528C81.36 27.8126 80.2671 28.5827 78.7767 28.5827C77.1788 28.5827 76.0693 27.8623 75.912 26.728H74.0739Z" fill="white"/>
<path d="M56.2824 21.0974C55.1001 21.0974 54.0776 21.6885 53.5503 22.6791H53.4225V21.2412H51.7689V32.8323H53.4864V28.6224H53.6222C54.0776 29.5411 55.0601 30.0843 56.2983 30.0843C58.4951 30.0843 59.8931 28.3508 59.8931 25.5869C59.8931 22.8229 58.4951 21.0974 56.2824 21.0974ZM55.7951 28.5426C54.3572 28.5426 53.4545 27.4082 53.4545 25.5949C53.4545 23.7735 54.3572 22.6392 55.8031 22.6392C57.2569 22.6392 58.1277 23.7495 58.1277 25.5869C58.1277 27.4322 57.2569 28.5426 55.7951 28.5426Z" fill="white"/>
<path d="M65.9029 21.0974C64.7206 21.0974 63.6981 21.6885 63.1709 22.6791H63.0431V21.2412H61.3895V32.8323H63.107V28.6224H63.2428C63.6981 29.5411 64.6807 30.0843 65.9189 30.0843C68.1157 30.0843 69.5136 28.3508 69.5136 25.5869C69.5136 22.8229 68.1157 21.0974 65.9029 21.0974ZM65.4156 28.5426C63.9777 28.5426 63.075 27.4082 63.075 25.5949C63.075 23.7735 63.9777 22.6392 65.4236 22.6392C66.8775 22.6392 67.7482 23.7495 67.7482 25.5869C67.7482 27.4322 66.8775 28.5426 65.4156 28.5426Z" fill="white"/>
<path d="M48.6874 29.9405H50.658L46.3443 17.9929H44.3489L40.0352 29.9405H41.9395L43.0407 26.7694H47.5945L48.6874 29.9405ZM45.2514 20.1622H45.3921L47.1226 25.2128H43.5126L45.2514 20.1622Z" fill="white"/>
<path d="M41.1895 8.9789V14.7425H43.2704C44.9879 14.7425 45.9825 13.684 45.9825 11.8427C45.9825 10.0294 44.9799 8.9789 43.2704 8.9789H41.1895ZM42.0841 9.79371H43.1706C44.3648 9.79371 45.0718 10.5526 45.0718 11.8547C45.0718 13.1768 44.3768 13.9277 43.1706 13.9277H42.0841V9.79371Z" fill="white"/>
<path d="M49.0284 14.8264C50.2986 14.8264 51.0774 13.9756 51.0774 12.5657C51.0774 11.1637 50.2946 10.309 49.0284 10.309C47.7583 10.309 46.9754 11.1637 46.9754 12.5657C46.9754 13.9756 47.7543 14.8264 49.0284 14.8264ZM49.0284 14.0635C48.2815 14.0635 47.8621 13.5163 47.8621 12.5657C47.8621 11.623 48.2815 11.0719 49.0284 11.0719C49.7713 11.0719 50.1947 11.623 50.1947 12.5657C50.1947 13.5123 49.7713 14.0635 49.0284 14.0635Z" fill="white"/>
<path d="M57.7102 10.3928H56.8514L56.0766 13.712H56.0087L55.114 10.3928H54.2912L53.3965 13.712H53.3326L52.5537 10.3928H51.683L52.8812 14.7425H53.7639L54.6586 11.5392H54.7265L55.6252 14.7425H56.5159L57.7102 10.3928Z" fill="white"/>
<path d="M58.6991 14.7425H59.5579V12.1982C59.5579 11.5192 59.9613 11.0958 60.5964 11.0958C61.2315 11.0958 61.535 11.4433 61.535 12.1423V14.7425H62.3938V11.9266C62.3938 10.8921 61.8585 10.309 60.888 10.309C60.2329 10.309 59.8015 10.6005 59.5898 11.0838H59.5259V10.3928H58.6991V14.7425Z" fill="white"/>
<path d="M63.7462 14.7425H64.6049V8.69531H63.7462V14.7425Z" fill="white"/>
<path d="M67.8346 14.8264C69.1048 14.8264 69.8836 13.9756 69.8836 12.5657C69.8836 11.1637 69.1008 10.309 67.8346 10.309C66.5645 10.309 65.7816 11.1637 65.7816 12.5657C65.7816 13.9756 66.5605 14.8264 67.8346 14.8264ZM67.8346 14.0635C67.0877 14.0635 66.6683 13.5163 66.6683 12.5657C66.6683 11.623 67.0877 11.0719 67.8346 11.0719C68.5775 11.0719 69.0009 11.623 69.0009 12.5657C69.0009 13.5123 68.5775 14.0635 67.8346 14.0635Z" fill="white"/>
<path d="M72.4423 14.0915C71.975 14.0915 71.6355 13.8638 71.6355 13.4724C71.6355 13.0889 71.9071 12.8852 72.5062 12.8453L73.5687 12.7774V13.1408C73.5687 13.6801 73.0894 14.0915 72.4423 14.0915ZM72.2226 14.8144C72.7938 14.8144 73.2691 14.5668 73.5287 14.1314H73.5966V14.7425H74.4234V11.7708C74.4234 10.8522 73.8083 10.309 72.7179 10.309C71.7314 10.309 71.0284 10.7883 70.9405 11.5352H71.7713C71.8672 11.2276 72.1987 11.0519 72.678 11.0519C73.2651 11.0519 73.5687 11.3115 73.5687 11.7708V12.1463L72.3904 12.2142C71.3559 12.2781 70.7728 12.7294 70.7728 13.5123C70.7728 14.3071 71.3839 14.8144 72.2226 14.8144Z" fill="white"/>
<path d="M77.3376 14.8144C77.9367 14.8144 78.444 14.5308 78.7036 14.0555H78.7715V14.7425H79.5943V8.69531H78.7355V11.0838H78.6716C78.436 10.6045 77.9327 10.3209 77.3376 10.3209C76.2392 10.3209 75.5322 11.1917 75.5322 12.5657C75.5322 13.9437 76.2312 14.8144 77.3376 14.8144ZM77.5812 11.0918C78.3002 11.0918 78.7515 11.663 78.7515 12.5697C78.7515 13.4803 78.3042 14.0435 77.5812 14.0435C76.8543 14.0435 76.4189 13.4883 76.4189 12.5657C76.4189 11.651 76.8583 11.0918 77.5812 11.0918Z" fill="white"/>
<path d="M85.163 14.8264C86.4331 14.8264 87.212 13.9756 87.212 12.5657C87.212 11.1637 86.4291 10.309 85.163 10.309C83.8928 10.309 83.11 11.1637 83.11 12.5657C83.11 13.9756 83.8888 14.8264 85.163 14.8264ZM85.163 14.0635C84.4161 14.0635 83.9967 13.5163 83.9967 12.5657C83.9967 11.623 84.4161 11.0719 85.163 11.0719C85.9059 11.0719 86.3293 11.623 86.3293 12.5657C86.3293 13.5123 85.9059 14.0635 85.163 14.0635Z" fill="white"/>
<path d="M88.3487 14.7425H89.2075V12.1982C89.2075 11.5192 89.6109 11.0958 90.246 11.0958C90.8811 11.0958 91.1846 11.4433 91.1846 12.1423V14.7425H92.0434V11.9266C92.0434 10.8921 91.5081 10.309 90.5376 10.309C89.8825 10.309 89.4511 10.6005 89.2394 11.0838H89.1755V10.3928H88.3487V14.7425Z" fill="white"/>
<path d="M95.9984 9.31042V10.4128H95.3074V11.1358H95.9984V13.5922C95.9984 14.431 96.3778 14.7665 97.3325 14.7665C97.5002 14.7665 97.66 14.7465 97.7998 14.7225V14.0076C97.6799 14.0196 97.6041 14.0275 97.4722 14.0275C97.0449 14.0275 96.8571 13.8278 96.8571 13.3725V11.1358H97.7998V10.4128H96.8571V9.31042H95.9984Z" fill="white"/>
<path d="M98.9525 14.7425H99.8112V12.2022C99.8112 11.5432 100.203 11.0998 100.906 11.0998C101.513 11.0998 101.836 11.4513 101.836 12.1463V14.7425H102.695V11.9346C102.695 10.9001 102.124 10.313 101.197 10.313C100.542 10.313 100.083 10.6045 99.8712 11.0918H99.8033V8.69531H98.9525V14.7425Z" fill="white"/>
<path d="M105.793 11.0399C106.428 11.0399 106.843 11.4833 106.863 12.1663H104.667C104.714 11.4872 105.158 11.0399 105.793 11.0399ZM106.859 13.5682C106.7 13.9077 106.344 14.0954 105.825 14.0954C105.138 14.0954 104.695 13.6121 104.667 12.8493V12.8013H107.738V12.5018C107.738 11.1358 107.007 10.309 105.797 10.309C104.571 10.309 103.792 11.1917 103.792 12.5817C103.792 13.9716 104.555 14.8264 105.801 14.8264C106.795 14.8264 107.49 14.3471 107.686 13.5682H106.859Z" fill="white"/>
<path d="M26.0086 20.625C26.0332 18.7232 27.0561 16.9237 28.6788 15.9275C27.6551 14.4677 25.9404 13.5422 24.1565 13.4864C22.2538 13.287 20.4092 14.6233 19.4396 14.6233C18.4513 14.6233 16.9585 13.5062 15.3509 13.5392C13.2556 13.6068 11.3022 14.7963 10.2828 16.6255C8.09143 20.4137 9.72599 25.9812 11.8251 29.0434C12.8754 30.5429 14.1028 32.2178 15.7089 32.1584C17.2805 32.0933 17.8675 31.1577 19.7646 31.1577C21.6441 31.1577 22.1948 32.1584 23.8335 32.1206C25.5199 32.0933 26.5825 30.6145 27.5959 29.1009C28.3505 28.0324 28.9311 26.8516 29.3164 25.6021C27.3345 24.7651 26.011 22.7736 26.0086 20.625Z" fill="white"/>
<path d="M22.9135 11.4726C23.833 10.3704 24.286 8.95374 24.1763 7.52344C22.7715 7.67076 21.4738 8.34116 20.5419 9.40106C19.6306 10.4366 19.1563 11.8284 19.246 13.204C20.6513 13.2185 22.0328 12.5662 22.9135 11.4726Z" fill="white"/>
</svg>
