<svg width="15" height="14" viewBox="0 0 15 14" fill="none" xmlns="http://www.w3.org/2000/svg">
<path d="M13.5723 8.95395C13.8085 8.95395 14 9.14539 14 9.38153V10.9211C14 12.2909 12.8895 13.4013 11.5198 13.4013H3.48021C2.11035 13.4013 1 12.2908 1 10.9211V9.38153C1 9.1454 1.19145 8.95395 1.42768 8.95395C1.66381 8.95395 1.85526 9.14539 1.85526 9.38153V10.9211C1.85526 11.8186 2.58283 12.546 3.48033 12.546H11.5199C12.4174 12.546 13.145 11.8186 13.145 10.9211V9.38153C13.145 9.1454 13.3364 8.95395 13.5725 8.95395H13.5723ZM7.49989 1C7.72662 1 7.91214 1.17638 7.92661 1.39945L7.92756 1.42758V8.48291L9.77396 6.75988C9.9391 6.6057 10.1939 6.60754 10.3567 6.75909L10.3784 6.78069C10.5324 6.94584 10.5306 7.20061 10.3791 7.3635L10.3575 7.3851L7.79429 9.77746C7.78663 9.78478 7.77861 9.79183 7.77043 9.79854C7.76825 9.80028 7.76598 9.80211 7.76381 9.80385C7.75876 9.80777 7.75362 9.81169 7.7483 9.81544C7.74464 9.81805 7.74107 9.82057 7.73733 9.82301C7.73358 9.82545 7.72975 9.82798 7.72592 9.83042C7.72226 9.83268 7.7186 9.83486 7.71494 9.83704C7.70928 9.84026 7.70353 9.84348 7.6977 9.84653L7.69082 9.85001C7.68559 9.85263 7.68028 9.85515 7.67496 9.85759C7.6713 9.85925 7.66756 9.86082 7.66381 9.86238C7.65911 9.8643 7.65432 9.86622 7.64962 9.86796L7.63725 9.87231C7.6335 9.87362 7.62976 9.87484 7.62601 9.87597C7.62079 9.87754 7.61556 9.87911 7.61033 9.8805C7.59631 9.88425 7.58194 9.88729 7.56739 9.88956C7.56373 9.89017 7.56016 9.89069 7.5565 9.89113L7.52811 9.894L7.49998 9.89487H7.4998C7.47803 9.89487 7.45625 9.89322 7.43465 9.88991L7.41453 9.88625C7.28362 9.9129 7.14225 9.87797 7.03711 9.7799L4.47127 7.38509C4.29855 7.22395 4.28923 6.95333 4.45037 6.7807C4.61159 6.60806 4.88213 6.59865 5.05485 6.75988L7.07222 8.64293V1.42772C7.07222 1.19158 7.26376 1.00013 7.4999 1.00013L7.49989 1Z" fill="white" stroke="white" stroke-width="0.6"/>
</svg>
