<svg width="131" height="39" viewBox="0 0 131 39" fill="none" xmlns="http://www.w3.org/2000/svg">
<rect width="130.881" height="38.4945" rx="6.15912" fill="black"/>
<path d="M66.0565 20.9332C63.7762 20.9332 61.9177 22.6549 61.9177 25.0261C61.9177 27.383 63.7762 29.1191 66.0565 29.1191C68.3377 29.1191 70.1962 27.383 70.1962 25.0261C70.1952 22.6549 68.3367 20.9332 66.0565 20.9332ZM66.0565 27.5081C64.8068 27.5081 63.7297 26.4851 63.7297 25.0271C63.7297 23.5537 64.8078 22.5461 66.0565 22.5461C67.3061 22.5461 68.3832 23.5537 68.3832 25.0271C68.3832 26.4841 67.3061 27.5081 66.0565 27.5081ZM57.0266 20.9332C54.7464 20.9332 52.8879 22.6549 52.8879 25.0261C52.8879 27.383 54.7464 29.1191 57.0266 29.1191C59.3078 29.1191 61.1663 27.383 61.1663 25.0261C61.1663 22.6549 59.3078 20.9332 57.0266 20.9332ZM57.0266 27.5081C55.7769 27.5081 54.6998 26.4851 54.6998 25.0271C54.6998 23.5537 55.7779 22.5461 57.0266 22.5461C58.2763 22.5461 59.3534 23.5537 59.3534 25.0271C59.3544 26.4841 58.2763 27.5081 57.0266 27.5081ZM46.2866 22.19V23.9262H50.4729C50.3478 24.903 50.0201 25.6161 49.5198 26.1117C48.911 26.716 47.958 27.383 46.2866 27.383C43.7097 27.383 41.6951 25.3206 41.6951 22.7627C41.6951 20.2047 43.7097 18.1424 46.2866 18.1424C47.6768 18.1424 48.6919 18.6851 49.4413 19.3828L50.6755 18.1578C49.6284 17.1656 48.2391 16.4063 46.2866 16.4063C42.7567 16.4063 39.7891 19.2587 39.7891 22.7627C39.7891 26.2666 42.7567 29.1191 46.2866 29.1191C48.1916 29.1191 49.6294 28.4983 50.753 27.3358C51.9087 26.1887 52.2684 24.5757 52.2684 23.2737C52.2684 22.8714 52.2373 22.499 52.1743 22.1891H46.2866V22.19ZM90.2123 23.5383C89.8691 22.6241 88.8221 20.9332 86.6824 20.9332C84.5582 20.9332 82.7928 22.5923 82.7928 25.0261C82.7928 27.3204 84.5427 29.1191 86.885 29.1191C88.7745 29.1191 89.8681 27.9719 90.3219 27.305L88.9161 26.3744C88.4478 27.0567 87.807 27.5061 86.885 27.5061C85.964 27.5061 85.3076 27.0875 84.8859 26.2657L90.3994 24.0022L90.2123 23.5383ZM84.5893 24.9029C84.5427 23.3208 85.8234 22.5153 86.7454 22.5153C87.4638 22.5153 88.0726 22.8724 88.2762 23.3834L84.5893 24.9029ZM80.1073 28.8717H81.9183V16.8412H80.1073V28.8717ZM77.1387 21.8484H77.0767C76.6704 21.3672 75.889 20.9332 74.906 20.9332C72.8439 20.9332 70.9543 22.7319 70.9543 25.0425C70.9543 27.3368 72.8439 29.12 74.906 29.12C75.89 29.12 76.6704 28.686 77.0767 28.1904H77.1387V28.7793C77.1387 30.3451 76.2953 31.1824 74.937 31.1824C73.8279 31.1824 73.1405 30.3923 72.8594 29.7254L71.282 30.3769C71.7348 31.4615 72.9369 32.7953 74.937 32.7953C77.0611 32.7953 78.8576 31.5548 78.8576 28.5311V21.1825H77.1397V21.8484H77.1387ZM75.0621 27.5081C73.8124 27.5081 72.7663 26.4687 72.7663 25.0425C72.7663 23.5999 73.8124 22.5461 75.0621 22.5461C76.2953 22.5461 77.2638 23.5999 77.2638 25.0425C77.2638 26.4687 76.2953 27.5081 75.0621 27.5081ZM98.6992 16.8412H94.3646V28.8717H96.1727V24.314H98.6983C100.703 24.314 102.675 22.8733 102.675 20.5781C102.675 18.2829 100.704 16.8412 98.6992 16.8412ZM98.7458 22.6395H96.1727V18.5157H98.7458C100.098 18.5157 100.866 19.6273 100.866 20.5781C100.866 21.5097 100.098 22.6395 98.7458 22.6395ZM109.926 20.912C108.616 20.912 107.26 21.4846 106.699 22.754L108.304 23.419C108.647 22.754 109.287 22.5365 109.957 22.5365C110.893 22.5365 111.844 23.0937 111.859 24.084V24.2081C111.531 24.0224 110.829 23.7443 109.972 23.7443C108.242 23.7443 106.479 24.6883 106.479 26.4524C106.479 28.0624 107.899 29.0989 109.489 29.0989C110.704 29.0989 111.375 28.557 111.796 27.9219H111.858V28.8506H113.605V24.238C113.606 22.1034 111.999 20.912 109.926 20.912ZM109.707 27.5052C109.115 27.5052 108.288 27.2107 108.288 26.4832C108.288 25.5545 109.318 25.1984 110.207 25.1984C111.001 25.1984 111.376 25.3687 111.859 25.6007C111.719 26.716 110.752 27.5052 109.707 27.5052ZM119.967 21.1748L117.893 26.3908H117.831L115.679 21.1748H113.73L116.958 28.4647L115.118 32.5201H117.004L121.979 21.1748H119.967ZM103.674 28.8717H105.482V16.8412H103.674V28.8717Z" fill="white"/>
<path d="M45.9708 9.86019C45.9708 10.6667 45.7303 11.3085 45.2485 11.7878C44.7017 12.3575 43.9882 12.6424 43.1117 12.6424C42.2722 12.6424 41.5577 12.3537 40.9711 11.7763C40.3836 11.1979 40.0898 10.4819 40.0898 9.6273C40.0898 8.77176 40.3836 8.05576 40.9711 7.47834C41.5577 6.89996 42.2722 6.61126 43.1117 6.61126C43.5286 6.61126 43.9271 6.69209 44.3052 6.85281C44.6843 7.01448 44.9877 7.22909 45.2146 7.49759L44.7037 8.00572C44.3188 7.5486 43.7885 7.32052 43.1108 7.32052C42.4981 7.32052 41.9687 7.53416 41.5218 7.96145C41.0748 8.38874 40.8519 8.94402 40.8519 9.62634C40.8519 10.3087 41.0748 10.8639 41.5218 11.2912C41.9687 11.7185 42.4981 11.9322 43.1108 11.9322C43.7603 11.9322 44.3023 11.7176 44.7356 11.2874C45.0168 11.0073 45.1797 10.6176 45.2233 10.1181H43.1108V9.42424H45.9291C45.9582 9.57533 45.9708 9.72065 45.9708 9.86019Z" fill="white"/>
<path d="M50.4402 7.44856H47.7916V9.27898H50.1804V9.97284H47.7916V11.8033H50.4402V12.5135H47.0441V6.7393H50.4402V7.44856Z" fill="white"/>
<path d="M53.5919 12.5135H52.8445V7.44856H51.2196V6.7393H55.2168V7.44856H53.5919V12.5135Z" fill="white"/>
<path d="M58.1088 12.5135V6.7393H58.8562V12.5135H58.1088Z" fill="white"/>
<path d="M62.1711 12.5135H61.4236V7.44856H59.7987V6.7393H63.7959V7.44856H62.1711V12.5135Z" fill="white"/>
<path d="M71.3626 11.7676C70.7906 12.3508 70.08 12.6424 69.2297 12.6424C68.3795 12.6424 67.6688 12.3508 67.0978 11.7676C66.5258 11.1844 66.2408 10.4704 66.2408 9.62638C66.2408 8.78239 66.5258 8.06832 67.0978 7.48512C67.6688 6.90193 68.3795 6.60938 69.2297 6.60938C70.0751 6.60938 70.7848 6.9029 71.3587 7.48897C71.9327 8.07505 72.2196 8.7872 72.2196 9.62638C72.2196 10.4704 71.9336 11.1844 71.3626 11.7676ZM67.6495 11.2836C68.0799 11.7166 68.6063 11.9322 69.2297 11.9322C69.8531 11.9322 70.3805 11.7157 70.81 11.2836C71.2404 10.8505 71.4566 10.2981 71.4566 9.62638C71.4566 8.95465 71.2404 8.40226 70.81 7.96919C70.3805 7.53613 69.8531 7.32056 69.2297 7.32056C68.6063 7.32056 68.0799 7.53709 67.6495 7.96919C67.22 8.40226 67.0038 8.95465 67.0038 9.62638C67.0038 10.2981 67.22 10.8505 67.6495 11.2836Z" fill="white"/>
<path d="M73.2686 12.5135V6.7393H74.178L77.0051 11.2306H77.0371L77.0051 10.1182V6.7393H77.7525V12.5135H76.9721L74.0142 7.80368H73.9822L74.0142 8.91617V12.5135H73.2686Z" fill="white"/>
<path d="M45.9708 9.86019C45.9708 10.6667 45.7303 11.3085 45.2485 11.7878C44.7017 12.3575 43.9882 12.6424 43.1117 12.6424C42.2722 12.6424 41.5577 12.3537 40.9711 11.7763C40.3836 11.1979 40.0898 10.4819 40.0898 9.6273C40.0898 8.77176 40.3836 8.05576 40.9711 7.47834C41.5577 6.89996 42.2722 6.61126 43.1117 6.61126C43.5286 6.61126 43.9271 6.69209 44.3052 6.85281C44.6843 7.01448 44.9877 7.22909 45.2146 7.49759L44.7037 8.00572C44.3188 7.5486 43.7885 7.32052 43.1108 7.32052C42.4981 7.32052 41.9687 7.53416 41.5218 7.96145C41.0748 8.38874 40.8519 8.94402 40.8519 9.62634C40.8519 10.3087 41.0748 10.8639 41.5218 11.2912C41.9687 11.7185 42.4981 11.9322 43.1108 11.9322C43.7603 11.9322 44.3023 11.7176 44.7356 11.2874C45.0168 11.0073 45.1797 10.6176 45.2233 10.1181H43.1108V9.42424H45.9291C45.9582 9.57533 45.9708 9.72065 45.9708 9.86019Z" stroke="white" stroke-width="0.192473" stroke-miterlimit="10"/>
<path d="M50.4402 7.44856H47.7916V9.27898H50.1804V9.97284H47.7916V11.8033H50.4402V12.5135H47.0441V6.7393H50.4402V7.44856Z" stroke="white" stroke-width="0.192473" stroke-miterlimit="10"/>
<path d="M53.5919 12.5135H52.8445V7.44856H51.2196V6.7393H55.2168V7.44856H53.5919V12.5135Z" stroke="white" stroke-width="0.192473" stroke-miterlimit="10"/>
<path d="M58.1088 12.5135V6.7393H58.8562V12.5135H58.1088Z" stroke="white" stroke-width="0.192473" stroke-miterlimit="10"/>
<path d="M62.1711 12.5135H61.4236V7.44856H59.7987V6.7393H63.7959V7.44856H62.1711V12.5135Z" stroke="white" stroke-width="0.192473" stroke-miterlimit="10"/>
<path d="M71.3626 11.7676C70.7906 12.3508 70.08 12.6424 69.2297 12.6424C68.3795 12.6424 67.6688 12.3508 67.0978 11.7676C66.5258 11.1844 66.2408 10.4704 66.2408 9.62638C66.2408 8.78239 66.5258 8.06832 67.0978 7.48512C67.6688 6.90193 68.3795 6.60938 69.2297 6.60938C70.0751 6.60938 70.7848 6.9029 71.3587 7.48897C71.9327 8.07505 72.2196 8.7872 72.2196 9.62638C72.2196 10.4704 71.9336 11.1844 71.3626 11.7676ZM67.6495 11.2836C68.0799 11.7166 68.6063 11.9322 69.2297 11.9322C69.8531 11.9322 70.3805 11.7157 70.81 11.2836C71.2404 10.8505 71.4566 10.2981 71.4566 9.62638C71.4566 8.95465 71.2404 8.40226 70.81 7.96919C70.3805 7.53613 69.8531 7.32056 69.2297 7.32056C68.6063 7.32056 68.0799 7.53709 67.6495 7.96919C67.22 8.40226 67.0038 8.95465 67.0038 9.62638C67.0038 10.2981 67.22 10.8505 67.6495 11.2836Z" stroke="white" stroke-width="0.192473" stroke-miterlimit="10"/>
<path d="M73.2686 12.5135V6.7393H74.178L77.0051 11.2306H77.0371L77.0051 10.1182V6.7393H77.7525V12.5135H76.9721L74.0142 7.80368H73.9822L74.0142 8.91617V12.5135H73.2686Z" stroke="white" stroke-width="0.192473" stroke-miterlimit="10"/>
<g filter="url(#filter0_ii_305_23350)">
<path d="M9.70337 7.31211C9.41229 7.60713 9.24023 8.06498 9.24023 8.65788V29.8415C9.24023 30.4354 9.41229 30.8923 9.70337 31.1873L9.7774 31.2563L22.1701 19.3896V19.2497V19.1099L9.7774 7.24219L9.70337 7.31211Z" fill="url(#paint0_linear_305_23350)"/>
<path d="M26.3002 23.3487L22.1699 19.3918V19.252V19.1121L26.3012 15.1563L26.3942 15.207L31.2887 17.8698C32.6861 18.6303 32.6861 19.8746 31.2887 20.6361L26.3942 23.2989L26.3002 23.3487Z" fill="url(#paint1_linear_305_23350)"/>
<g filter="url(#filter1_i_305_23350)">
<path d="M26.3941 23.2959L22.1689 19.25L9.70313 31.1876C10.1633 31.655 10.9245 31.7125 11.7817 31.247L26.3941 23.2959Z" fill="url(#paint2_linear_305_23350)"/>
</g>
<path d="M26.3941 15.2017L11.7817 7.25159C10.9245 6.78513 10.1633 6.84355 9.70313 7.31098L22.1699 19.2486L26.3941 15.2017Z" fill="url(#paint3_linear_305_23350)"/>
</g>
<defs>
<filter id="filter0_ii_305_23350" x="9.24023" y="6.92969" width="23.0967" height="24.6406" filterUnits="userSpaceOnUse" color-interpolation-filters="sRGB">
<feFlood flood-opacity="0" result="BackgroundImageFix"/>
<feBlend mode="normal" in="SourceGraphic" in2="BackgroundImageFix" result="shape"/>
<feColorMatrix in="SourceAlpha" type="matrix" values="0 0 0 0 0 0 0 0 0 0 0 0 0 0 0 0 0 0 127 0" result="hardAlpha"/>
<feOffset dy="-0.144354"/>
<feComposite in2="hardAlpha" operator="arithmetic" k2="-1" k3="1"/>
<feColorMatrix type="matrix" values="0 0 0 0 0 0 0 0 0 0 0 0 0 0 0 0 0 0 0.12 0"/>
<feBlend mode="normal" in2="shape" result="effect1_innerShadow_305_23350"/>
<feColorMatrix in="SourceAlpha" type="matrix" values="0 0 0 0 0 0 0 0 0 0 0 0 0 0 0 0 0 0 127 0" result="hardAlpha"/>
<feOffset dy="0.144354"/>
<feComposite in2="hardAlpha" operator="arithmetic" k2="-1" k3="1"/>
<feColorMatrix type="matrix" values="0 0 0 0 1 0 0 0 0 1 0 0 0 0 1 0 0 0 0.25 0"/>
<feBlend mode="normal" in2="effect1_innerShadow_305_23350" result="effect2_innerShadow_305_23350"/>
</filter>
<filter id="filter1_i_305_23350" x="9.70312" y="19.25" width="16.6914" height="12.3203" filterUnits="userSpaceOnUse" color-interpolation-filters="sRGB">
<feFlood flood-opacity="0" result="BackgroundImageFix"/>
<feBlend mode="normal" in="SourceGraphic" in2="BackgroundImageFix" result="shape"/>
<feColorMatrix in="SourceAlpha" type="matrix" values="0 0 0 0 0 0 0 0 0 0 0 0 0 0 0 0 0 0 127 0" result="hardAlpha"/>
<feOffset dy="-0.144354"/>
<feComposite in2="hardAlpha" operator="arithmetic" k2="-1" k3="1"/>
<feColorMatrix type="matrix" values="0 0 0 0 0 0 0 0 0 0 0 0 0 0 0 0 0 0 0.08 0"/>
<feBlend mode="normal" in2="shape" result="effect1_innerShadow_305_23350"/>
</filter>
<linearGradient id="paint0_linear_305_23350" x1="21.0716" y1="8.43374" x2="5.01216" y2="25.205" gradientUnits="userSpaceOnUse">
<stop stop-color="#00A0FF"/>
<stop offset="0.0066" stop-color="#00A1FF"/>
<stop offset="0.2601" stop-color="#00BEFF"/>
<stop offset="0.5122" stop-color="#00D2FF"/>
<stop offset="0.7604" stop-color="#00DFFF"/>
<stop offset="1" stop-color="#00E3FF"/>
</linearGradient>
<linearGradient id="paint1_linear_305_23350" x1="33.1077" y1="19.252" x2="8.90454" y2="19.252" gradientUnits="userSpaceOnUse">
<stop stop-color="#FFE000"/>
<stop offset="0.4087" stop-color="#FFBD00"/>
<stop offset="0.7754" stop-color="#FFA500"/>
<stop offset="1" stop-color="#FF9C00"/>
</linearGradient>
<linearGradient id="paint2_linear_305_23350" x1="24.0995" y1="21.4472" x2="2.32096" y2="44.1911" gradientUnits="userSpaceOnUse">
<stop stop-color="#FF3A44"/>
<stop offset="1" stop-color="#C31162"/>
</linearGradient>
<linearGradient id="paint3_linear_305_23350" x1="6.56358" y1="0.259148" x2="16.2883" y2="10.4149" gradientUnits="userSpaceOnUse">
<stop stop-color="#32A071"/>
<stop offset="0.0685" stop-color="#2DA771"/>
<stop offset="0.4762" stop-color="#15CF74"/>
<stop offset="0.8009" stop-color="#06E775"/>
<stop offset="1" stop-color="#00F076"/>
</linearGradient>
</defs>
</svg>
