<svg width="20" height="20" viewBox="0 0 20 20" fill="none" xmlns="http://www.w3.org/2000/svg">
<path d="M9.99 0C4.47 0 0 4.48 0 10C0 15.52 4.47 20 9.99 20C15.52 20 20 15.52 20 10C20 4.48 15.52 0 9.99 0ZM10 18C5.58 18 2 14.42 2 10C2 5.58 5.58 2 10 2C14.42 2 18 5.58 18 10C18 14.42 14.42 18 10 18Z" fill="#1A4B8F"/>
<path d="M6.40468 14L11.9255 6.04957H13.4891L7.96831 14H6.40468ZM6.89783 5.94132C7.35489 5.94132 7.7478 6.03754 8.07656 6.22999C8.41334 6.41442 8.67394 6.67502 8.85837 7.0118C9.0428 7.34858 9.13501 7.7455 9.13501 8.20256C9.13501 8.65962 9.0428 9.05654 8.85837 9.39332C8.67394 9.7301 8.41334 9.99472 8.07656 10.1872C7.7478 10.3716 7.35489 10.4638 6.89783 10.4638C6.44879 10.4638 6.05588 10.3716 5.71909 10.1872C5.39033 9.99472 5.12973 9.7301 4.93728 9.39332C4.75285 9.05654 4.66064 8.65962 4.66064 8.20256C4.66064 7.7455 4.75285 7.34858 4.93728 7.0118C5.12973 6.67502 5.39033 6.41442 5.71909 6.22999C6.05588 6.03754 6.44879 5.94132 6.89783 5.94132ZM6.89783 7.3125C6.74547 7.3125 6.61718 7.34858 6.51294 7.42075C6.40869 7.4849 6.32851 7.58513 6.27238 7.72145C6.21625 7.84974 6.18818 8.01011 6.18818 8.20256C6.18818 8.38699 6.21625 8.54736 6.27238 8.68368C6.32851 8.81999 6.40869 8.92423 6.51294 8.9964C6.61718 9.06055 6.74547 9.09262 6.89783 9.09262C7.0582 9.09262 7.19051 9.06055 7.29475 8.9964C7.39899 8.92423 7.47918 8.81999 7.53531 8.68368C7.59144 8.54736 7.6195 8.38699 7.6195 8.20256C7.6195 8.01011 7.59144 7.84974 7.53531 7.72145C7.47918 7.58513 7.39899 7.4849 7.29475 7.42075C7.19051 7.34858 7.0582 7.3125 6.89783 7.3125ZM12.9719 9.5978C13.4209 9.5978 13.8139 9.69402 14.1506 9.88646C14.4874 10.0709 14.748 10.3315 14.9325 10.6683C15.1169 11.0051 15.2091 11.402 15.2091 11.859C15.2091 12.3161 15.1169 12.713 14.9325 13.0498C14.748 13.3866 14.4874 13.6512 14.1506 13.8436C13.8139 14.0281 13.4209 14.1203 12.9719 14.1203C12.5229 14.1203 12.13 14.0281 11.7932 13.8436C11.4564 13.6512 11.1958 13.3866 11.0114 13.0498C10.8269 12.713 10.7347 12.3161 10.7347 11.859C10.7347 11.402 10.8269 11.0051 11.0114 10.6683C11.1958 10.3315 11.4564 10.0709 11.7932 9.88646C12.13 9.69402 12.5229 9.5978 12.9719 9.5978ZM12.9719 10.969C12.8196 10.969 12.6872 11.0051 12.575 11.0772C12.4707 11.1414 12.3906 11.2416 12.3344 11.3779C12.2783 11.5062 12.2502 11.6666 12.2502 11.859C12.2502 12.0435 12.2783 12.2038 12.3344 12.3402C12.3906 12.4765 12.4707 12.5807 12.575 12.6529C12.6872 12.717 12.8196 12.7491 12.9719 12.7491C13.1323 12.7491 13.2646 12.717 13.3688 12.6529C13.4731 12.5807 13.5533 12.4765 13.6094 12.3402C13.6655 12.2038 13.6936 12.0435 13.6936 11.859C13.6936 11.6666 13.6655 11.5062 13.6094 11.3779C13.5533 11.2416 13.4731 11.1414 13.3688 11.0772C13.2646 11.0051 13.1323 10.969 12.9719 10.969Z" fill="#1A4B8F"/>
</svg>
